# xmcd CD database file
# Copyright (C) 1993-1998 Ti Kan
#
# Track frame offsets:
#  150
#  19415
#  28070
#  38222
#  47680
#  55860
#  66142
#  87100
#  100715
#  115067
#  124825
#  135382
#  149010
#  160492
#  173195
#  185257
#  193452
#  202660
#  222742
#  232362
#  237500
#  250309
#  263847
#  274685
#  287177
#  292165
#  301500
#  307777
#  317505
#  327407
#  339597
#  348280
#
# Disc length: 4738 seconds
#
# Revision: 1
# Processed by: cddbd v1.4b41PL1 Copyright (c) Steve Scherf et al.
# Submitted via: CDWizzard Release:4.32
#
DISCID=ec128020
DTITLE=The Maddox Brothers and Rose - On The Air:  The 1940s
DYEAR=1900
DGENRE=
TTITLE0=Theme and A Cowboy Has To Yell
TTITLE1=Let Me Ride My Pony Down The Sunset Trail
TTITLE2=Once I Had A Darling Mother
TTITLE3=Hold That Critter Down
TTITLE4=I'm Talking About You
TTITLE5=I'm Going To The Hoedown and Theme Out
TTITLE6=Theme and Small Town Mama
TTITLE7=Mama Please Stay Home With Me
TTITLE8=If You Ain't Got The Do-Re-Mi
TTITLE9=I Might Have Known
TTITLE10=I'll Reap My Harvest In Heaven
TTITLE11=Don't Hang Around Me Any More
TTITLE12=A Sinner's Prayer Is Never Answered
TTITLE13=The Girl I Love Don't Pay Me No Mind
TTITLE14=Write Me, Sweetheart
TTITLE15=I'm A Handy Man To Have Around
TTITLE16=I've Rambled Around, Theme out and Station ID
TTITLE17=Gathering Flowers For The Master's Bouquet
TTITLE18=I Couldn't Believe It Was True
TTITLE19=KTRB Theme and Regal Pale Beer ad
TTITLE20=The Goldrush Is Over
TTITLE21=Almost
TTITLE22=Too Old To Cut The Mustard
TTITLE23=Breathless Love
TTITLE24=KTRB Theme and Regal Pale Beer ad
TTITLE25=Walkin' In My Sleep
TTITLE26=Introduction by Fred and Rose
TTITLE27=Fried Potatoes
TTITLE28=Nobody's Love Is Like Mine
TTITLE29=Meanest Man In Town
TTITLE30=Freight Train Boogie
TTITLE31=KTRB Theme out
EXTD=
EXTT0=
EXTT1=
EXTT2=
EXTT3=
EXTT4=
EXTT5=
EXTT6=
EXTT7=
EXTT8=
EXTT9=
EXTT10=
EXTT11=
EXTT12=
EXTT13=
EXTT14=
EXTT15=
EXTT16=
EXTT17=
EXTT18=
EXTT19=
EXTT20=
EXTT21=
EXTT22=
EXTT23=
EXTT24=
EXTT25=
EXTT26=
EXTT27=
EXTT28=
EXTT29=
EXTT30=
EXTT31=
PLAYORDER=
